<svg height="512" viewBox="0 0 512 512" width="512" xmlns="http://www.w3.org/2000/svg" xmlns:xlink="http://www.w3.org/1999/xlink"><linearGradient id="a" gradientUnits="userSpaceOnUse" x1="4.978" x2="472.844" y1="507.021" y2="39.156" data-name="New Gradient Swatch 1"><stop offset="0" stop-color="#003f8a"/><stop offset=".518" stop-color="#00d7df"/><stop offset="1" stop-color="#006df0"/></linearGradient><g fill="url(#a)"><path d="m496 136a8 8 0 0 0 8-8v-32a8 8 0 0 0 -8-8h-58.71a28.2 28.2 0 0 0 -13.29-13.29v-58.71a8 8 0 0 0 -8-8h-32a8 8 0 0 0 -8 8v56h-24v-56a8 8 0 0 0 -8-8h-32a8 8 0 0 0 -8 8v56h-24v-56a8 8 0 0 0 -8-8h-32a8 8 0 0 0 -8 8v56h-24v-56a8 8 0 0 0 -8-8h-32a8 8 0 0 0 -8 8v56h-24v-56a8 8 0 0 0 -8-8h-32a8 8 0 0 0 -8 8v58.71a28.2 28.2 0 0 0 -13.29 13.29h-58.71a8 8 0 0 0 -8 8v32a8 8 0 0 0 8 8h56v24h-56a8 8 0 0 0 -8 8v32a8 8 0 0 0 8 8h56v24h-56a8 8 0 0 0 -8 8v32a8 8 0 0 0 8 8h56v24h-56a8 8 0 0 0 -8 8v32a8 8 0 0 0 8 8h56v24h-56a8 8 0 0 0 -8 8v32a8 8 0 0 0 8 8h58.71a28.2 28.2 0 0 0 13.29 13.29v58.71a8 8 0 0 0 8 8h32a8 8 0 0 0 8-8v-56h24v56a8 8 0 0 0 8 8h32a8 8 0 0 0 8-8v-56h24v56a8 8 0 0 0 8 8h32a8 8 0 0 0 8-8v-56h24v56a8 8 0 0 0 8 8h32a8 8 0 0 0 8-8v-56h24v56a8 8 0 0 0 8 8h32a8 8 0 0 0 8-8v-58.71a28.2 28.2 0 0 0 13.29-13.29h58.71a8 8 0 0 0 8-8v-32a8 8 0 0 0 -8-8h-56v-24h56a8 8 0 0 0 8-8v-32a8 8 0 0 0 -8-8h-56v-24h56a8 8 0 0 0 8-8v-32a8 8 0 0 0 -8-8h-56v-24h56a8 8 0 0 0 8-8v-32a8 8 0 0 0 -8-8h-56v-24zm-56-32h48v16h-48zm-368 304h-48v-16h48zm0-72h-48v-16h48zm0-72h-48v-16h48zm0-72h-48v-16h48zm0-72h-48v-16h48zm320-96h16v48h-16zm-72 0h16v48h-16zm-72 0h16v48h-16zm-72 0h16v48h-16zm-72 0h16v48h-16zm16 464h-16v-48h16zm72 0h-16v-48h16zm72 0h-16v-48h16zm72 0h-16v-48h16zm72 0h-16v-48h16zm16-76a12.01 12.01 0 0 1 -12 12h-312a12.01 12.01 0 0 1 -12-12v-312a12.01 12.01 0 0 1 12-12h312a12.01 12.01 0 0 1 12 12zm64-20v16h-48v-16zm0-72v16h-48v-16zm0-72v16h-48v-16zm0-72v16h-48v-16z"/><path d="m400 104h-288a8 8 0 0 0 -8 8v288a8 8 0 0 0 8 8h288a8 8 0 0 0 8-8v-288a8 8 0 0 0 -8-8zm-8 288h-272v-272h272z"/></g></svg>