<?xml version="1.0" standalone="no"?>
<!DOCTYPE svg PUBLIC "-//W3C//DTD SVG 20010904//EN"
 "http://www.w3.org/TR/2001/REC-SVG-20010904/DTD/svg10.dtd">
<svg version="1.0" xmlns="http://www.w3.org/2000/svg"
 width="229.000000pt" height="220.000000pt" viewBox="0 0 229.000000 220.000000"
 preserveAspectRatio="xMidYMid meet">

<g transform="translate(0.000000,220.000000) scale(0.100000,-0.100000)"
fill="#000000" stroke="none">
<path d="M984 1941 c-21 -13 -38 -36 -49 -65 l-18 -46 -128 0 c-113 0 -128 -2
-133 -17 -9 -31 -53 -311 -77 -488 -15 -117 -22 -226 -23 -350 -1 -165 1 -184
20 -222 16 -33 18 -43 8 -43 -11 0 -14 -28 -14 -140 l0 -140 145 0 145 0 37
-34 c59 -53 224 -176 236 -176 10 0 181 127 245 182 l33 28 150 0 150 0 -3
138 c-3 123 -5 137 -20 136 -22 -2 -22 -6 2 48 29 67 34 187 16 388 -14 154
-52 426 -87 625 l-11 65 -203 0 -202 0 -17 45 c-31 79 -129 111 -202 66z m139
-31 c38 -30 52 -80 33 -123 -15 -37 -59 -67 -96 -67 -37 0 -81 30 -96 67 -29
68 21 143 96 143 22 0 48 -8 63 -20z m-323 -217 c52 -110 160 -360 160 -372 0
-5 -7 -14 -16 -21 -13 -12 -26 -3 -90 61 -42 41 -101 103 -133 139 l-58 65 13
75 c25 149 22 140 54 140 26 0 32 -7 70 -87z m440 85 c0 -13 -64 -156 -76
-169 -7 -8 -14 -26 -14 -38 0 -12 -5 -31 -11 -43 -10 -19 -12 -18 -27 14 -13
26 -24 34 -50 36 -43 4 -48 -13 -21 -79 35 -89 40 -109 23 -109 -8 0 -26 26
-41 58 -20 45 -27 77 -31 152 l-4 95 67 0 c67 0 68 0 104 42 22 26 45 42 59
43 12 0 22 -1 22 -2z m350 -149 c11 -63 20 -117 20 -122 0 -4 -43 -28 -95 -54
l-95 -48 0 -97 c0 -64 -9 -143 -25 -227 -29 -146 -26 -164 29 -206 20 -15 36
-34 36 -42 0 -8 -21 -39 -46 -68 l-45 -54 -62 2 -62 2 -27 50 c-15 28 -28 57
-28 66 0 8 -14 37 -31 63 -17 26 -29 49 -27 51 7 8 65 -79 77 -116 12 -39 67
-109 83 -109 7 0 2 10 -9 23 -11 12 -23 34 -27 50 -3 15 -11 27 -16 27 -6 0
-10 11 -10 23 0 13 -9 34 -20 47 -11 13 -20 27 -20 32 0 5 -7 16 -14 24 -11
11 -14 36 -13 94 1 44 -1 80 -4 80 -3 0 -10 15 -15 33 -13 44 -50 50 -60 10
-4 -15 -11 -36 -16 -47 -8 -15 -12 -16 -19 -5 -13 21 -11 32 6 25 12 -4 13 -2
5 13 -22 43 -14 101 15 101 8 0 22 11 30 24 19 29 66 48 86 35 8 -5 28 -9 44
-9 24 0 31 5 34 23 8 58 2 78 -37 124 -17 21 -32 44 -32 51 0 7 -7 24 -16 37
-17 27 -16 66 3 73 7 2 16 -5 19 -15 13 -38 36 -80 71 -128 20 -27 33 -41 29
-30 -12 32 -12 37 1 42 13 5 29 -58 20 -81 -3 -7 -2 -17 2 -22 4 -5 18 -38 31
-73 13 -36 26 -59 28 -52 2 6 -1 24 -7 39 -6 15 -13 55 -15 89 -2 33 -7 66
-10 72 -4 6 -8 23 -10 38 -2 16 -7 46 -11 67 -5 26 -4 37 3 32 6 -3 12 0 14 6
3 7 8 -7 13 -32 6 -32 9 -39 12 -22 4 22 181 217 190 209 2 -3 12 -56 23 -118z
m-349 -276 c7 -18 6 -30 -1 -37 -7 -7 -10 -6 -10 3 0 7 -6 11 -13 8 -19 -7
-39 27 -24 42 18 18 37 13 48 -16z m-469 -54 c106 -42 128 -55 128 -72 0 -20
-3 -20 -137 -14 -75 4 -138 9 -141 11 -6 7 9 126 16 126 3 0 63 -23 134 -51z
m872 -41 c3 -24 8 -64 11 -90 5 -42 4 -48 -12 -48 -32 1 -213 26 -217 31 -2 2
-1 30 1 61 l5 57 72 11 c39 6 76 13 81 15 6 2 20 4 32 4 18 1 23 -6 27 -41z
m-624 -7 c0 -11 -29 -35 -35 -29 -10 9 7 38 21 38 8 0 14 -4 14 -9z m-106
-107 c9 -8 16 -17 16 -19 0 -2 -69 -63 -152 -136 -84 -73 -156 -137 -159 -142
-17 -25 -28 194 -10 221 7 12 237 89 273 91 9 1 24 -6 32 -15z m209 -90 c5
-59 4 -62 -38 -118 -51 -68 -137 -161 -180 -194 -17 -13 -22 -21 -12 -18 9 3
17 0 17 -5 0 -7 -9 -9 -21 -6 -12 3 -38 -2 -58 -12 -20 -10 -47 -22 -61 -26
-21 -6 -18 1 23 42 28 30 56 71 68 103 11 29 38 74 59 99 143 166 184 211 190
204 4 -4 10 -35 13 -69z m-136 54 c-36 -82 -57 -136 -57 -149 0 -8 -12 -26
-26 -40 l-26 -24 17 40 c10 22 31 73 47 113 17 39 35 72 40 72 6 0 8 -6 5 -12z
m663 -188 c18 0 10 -85 -13 -134 l-23 -50 -22 36 c-34 55 -106 116 -146 123
-19 4 -40 13 -46 20 -12 15 -16 71 -6 102 7 21 10 20 127 -38 65 -32 124 -59
129 -59z m-629 -192 c8 -15 6 -18 -11 -18 -16 0 -20 6 -20 33 0 33 4 31 31
-15z m649 -158 l0 -100 -52 0 c-61 -1 -937 -1 -985 0 l-33 0 0 99 0 99 535 1
535 2 0 -101z m-484 -167 c3 -16 7 -33 9 -40 2 -6 -11 -23 -29 -36 l-32 -25
-73 53 c-108 79 -109 75 12 75 l107 0 6 -27z"/>
<path d="M1040 1880 c0 -5 5 -10 10 -10 6 0 10 5 10 10 0 6 -4 10 -10 10 -5 0
-10 -4 -10 -10z"/>
<path d="M1073 1865 c-7 -8 -13 -19 -13 -26 0 -6 -7 -8 -16 -5 -9 3 -18 6 -20
6 -3 0 -3 4 1 9 3 5 1 12 -5 16 -14 9 -13 -18 2 -33 18 -18 45 -14 51 8 3 11
12 20 21 20 9 0 16 5 16 10 0 15 -23 12 -37 -5z"/>
<path d="M1110 1836 c0 -23 16 -27 17 -5 1 10 -2 19 -8 19 -5 0 -9 -6 -9 -14z"/>
<path d="M994 1823 c2 -10 6 -17 10 -16 15 3 16 11 2 22 -12 10 -14 9 -12 -6z"/>
<path d="M1085 1820 c-3 -5 -1 -10 4 -10 6 0 11 5 11 10 0 6 -2 10 -4 10 -3 0
-8 -4 -11 -10z"/>
<path d="M1100 1790 c0 -5 5 -10 10 -10 6 0 10 5 10 10 0 6 -4 10 -10 10 -5 0
-10 -4 -10 -10z"/>
<path d="M1020 1780 c0 -5 5 -10 10 -10 6 0 10 5 10 10 0 6 -4 10 -10 10 -5 0
-10 -4 -10 -10z"/>
<path d="M1060 1770 c0 -5 5 -10 10 -10 6 0 10 5 10 10 0 6 -4 10 -10 10 -5 0
-10 -4 -10 -10z"/>
<path d="M1380 1505 c0 -5 5 -17 10 -25 5 -8 10 -10 10 -5 0 6 -5 17 -10 25
-5 8 -10 11 -10 5z"/>
<path d="M1125 1260 c-4 -7 95 -23 102 -16 2 2 -19 8 -47 13 -28 6 -53 7 -55
3z"/>
<path d="M1416 833 c-11 -11 -6 -21 9 -19 22 3 28 13 11 19 -8 3 -17 3 -20 0z"/>
<path d="M660 567 c0 -70 13 -87 51 -66 17 9 20 19 17 67 -3 56 -3 57 -35 60
l-33 3 0 -64z m50 -2 c0 -42 -3 -55 -15 -55 -12 0 -15 13 -15 55 0 42 3 55 15
55 12 0 15 -13 15 -55z"/>
<path d="M752 563 c3 -66 4 -68 31 -69 15 -1 27 3 27 7 0 5 -9 9 -20 9 -15 0
-20 7 -20 25 0 16 6 25 15 25 8 0 15 5 15 10 0 6 -7 10 -15 10 -25 0 -18 38 8
43 16 3 13 5 -11 6 l-33 1 3 -67z"/>
<path d="M841 573 c-14 -69 -14 -73 -1 -73 6 0 10 7 10 15 0 23 25 18 39 -7 9
-19 10 -13 5 36 -7 71 -12 86 -29 86 -7 0 -17 -24 -24 -57z m38 -20 c1 -7 -3
-13 -9 -13 -5 0 -10 15 -9 33 0 27 2 29 9 12 5 -11 9 -26 9 -32z"/>
<path d="M920 567 c0 -56 3 -65 20 -70 36 -9 51 14 48 73 -3 54 -4 55 -35 58
l-33 3 0 -64z m50 -2 c0 -42 -3 -55 -15 -55 -12 0 -15 13 -15 55 0 42 3 55 15
55 12 0 15 -13 15 -55z"/>
<path d="M1069 593 c-5 -50 0 -93 11 -93 5 0 10 15 12 33 l3 32 18 -39 c19
-44 35 -43 19 2 -6 18 -6 35 0 45 16 29 0 57 -32 57 -25 0 -28 -4 -31 -37z
m46 2 c0 -10 -6 -20 -12 -22 -8 -3 -13 5 -13 22 0 17 5 25 13 23 6 -3 12 -13
12 -23z"/>
<path d="M1170 565 c-7 -36 -9 -69 -6 -73 4 -3 9 4 13 16 6 25 33 30 33 7 0
-8 5 -15 11 -15 11 0 6 80 -7 115 -14 34 -32 13 -44 -50z m36 -11 c-10 -26
-23 -14 -18 17 4 26 6 29 14 15 5 -10 7 -24 4 -32z"/>
<path d="M1250 566 c0 -68 9 -80 49 -69 24 6 38 40 23 55 -6 6 -8 26 -5 44 6
33 5 34 -31 34 l-36 0 0 -64z m50 34 c0 -11 -7 -20 -15 -20 -8 0 -15 9 -15 20
0 11 7 20 15 20 8 0 15 -9 15 -20z m3 -59 c5 -22 0 -31 -20 -31 -7 0 -13 11
-13 25 0 30 25 34 33 6z"/>
<path d="M1340 566 c0 -67 9 -78 52 -68 21 4 34 40 20 54 -6 6 -8 26 -5 44 6
33 5 34 -31 34 l-36 0 0 -64z m50 34 c0 -11 -7 -20 -15 -20 -8 0 -15 9 -15 20
0 11 7 20 15 20 8 0 15 -9 15 -20z m5 -65 c0 -11 -8 -21 -17 -23 -14 -3 -18 3
-18 23 0 20 4 26 18 23 9 -2 17 -12 17 -23z"/>
<path d="M1430 565 c0 -37 4 -65 10 -65 6 0 10 28 10 65 0 37 -4 65 -10 65 -6
0 -10 -28 -10 -65z"/>
<path d="M1483 619 c13 -8 17 -23 17 -64 0 -30 5 -55 10 -55 6 0 10 26 10 59
0 38 4 61 13 64 6 3 -6 6 -28 6 -32 0 -36 -2 -22 -10z"/>
<path d="M1557 609 c-4 -14 2 -29 19 -46 24 -24 32 -53 15 -53 -6 0 -13 5 -16
10 -10 16 -25 12 -19 -5 4 -9 19 -15 35 -15 38 0 39 30 3 72 -28 34 -19 63 12
37 15 -12 17 -12 12 1 -2 8 -16 16 -30 18 -19 2 -27 -2 -31 -19z"/>
<path d="M690 1895 c0 -38 3 -45 19 -45 23 0 35 31 27 66 -4 15 -14 24 -26 24
-17 0 -20 -7 -20 -45z m30 0 c0 -19 -4 -35 -10 -35 -5 0 -10 16 -10 35 0 19 5
35 10 35 6 0 10 -16 10 -35z"/>
<path d="M750 1895 c0 -43 1 -45 29 -45 16 0 32 6 34 13 4 9 8 8 16 -3 9 -12
11 -10 11 10 0 35 -11 70 -21 70 -5 0 -12 -18 -15 -40 -5 -30 -11 -40 -25 -40
-21 0 -26 26 -6 33 10 4 10 6 0 6 -19 1 -15 29 5 34 13 4 11 5 -5 6 -21 1 -23
-4 -23 -44z m76 -12 c-10 -10 -19 5 -10 18 6 11 8 11 12 0 2 -7 1 -15 -2 -18z"/>
<path d="M850 1896 c0 -43 2 -46 26 -46 23 0 25 3 22 43 -2 35 -7 43 -25 45
-21 3 -23 -1 -23 -42z m40 -7 c0 -16 -4 -29 -10 -29 -5 0 -10 16 -10 36 0 21
4 33 10 29 6 -3 10 -19 10 -36z"/>
<path d="M1220 1896 c0 -25 4 -46 10 -46 5 0 7 7 4 15 -8 20 6 19 21 -1 9 -13
11 -8 11 27 -1 38 -4 44 -23 47 -21 3 -23 -1 -23 -42z m38 16 c2 -7 -3 -12
-10 -12 -8 0 -15 7 -15 15 0 18 19 15 25 -3z"/>
<path d="M1286 1909 c-3 -17 -6 -39 -6 -48 0 -14 2 -14 11 -1 8 11 12 12 16 3
7 -19 22 -15 18 5 -12 59 -16 72 -24 72 -5 0 -11 -14 -15 -31z m20 -26 c-10
-10 -19 5 -10 18 6 11 8 11 12 0 2 -7 1 -15 -2 -18z"/>
<path d="M1338 1903 c5 -59 10 -63 11 -10 1 26 -3 47 -7 47 -4 0 -6 -17 -4
-37z"/>
<path d="M1366 1928 c-2 -7 -4 -28 -3 -45 0 -28 5 -33 24 -33 21 0 23 4 20 42
-1 32 -7 44 -20 46 -9 2 -19 -2 -21 -10z m29 -7 c3 -5 1 -12 -5 -16 -5 -3 -10
1 -10 9 0 18 6 21 15 7z m5 -46 c0 -8 -4 -15 -10 -15 -5 0 -10 7 -10 15 0 8 5
15 10 15 6 0 10 -7 10 -15z"/>
<path d="M1422 1918 c0 -55 8 -68 37 -68 16 0 32 6 34 13 4 9 8 8 17 -3 9 -12
10 -5 4 30 -7 52 -9 54 -23 45 -6 -3 -11 -22 -11 -41 0 -27 -4 -34 -20 -34
-22 0 -28 25 -7 33 10 4 10 6 0 6 -19 1 -15 29 5 34 11 3 7 5 -10 6 -22 1 -27
-3 -26 -21z m82 -23 c3 -8 1 -15 -4 -15 -6 0 -10 7 -10 15 0 8 2 15 4 15 2 0
6 -7 10 -15z"/>
<path d="M1530 1895 c0 -42 2 -46 23 -43 19 3 22 9 22 43 0 34 -3 40 -22 43
-21 3 -23 -1 -23 -43z m31 28 c5 -33 2 -57 -8 -60 -9 -3 -13 7 -13 31 0 20 5
36 10 36 6 0 11 -3 11 -7z"/>
</g>
</svg>
