<?xml version="1.0" standalone="no"?>
<!DOCTYPE svg PUBLIC "-//W3C//DTD SVG 20010904//EN"
 "http://www.w3.org/TR/2001/REC-SVG-20010904/DTD/svg10.dtd">
<svg version="1.0" xmlns="http://www.w3.org/2000/svg"
 width="500.000000pt" height="500.000000pt" viewBox="0 0 500.000000 500.000000"
 preserveAspectRatio="xMidYMid meet">

<g transform="translate(0.000000,500.000000) scale(0.100000,-0.100000)"
fill="none" stroke="none">
<path d="M2695 3939 c-321 -10 -711 -38 -780 -55 -81 -20 -127 -53 -153 -107
-66 -140 -37 -323 57 -366 20 -9 68 -38 108 -64 142 -95 265 -137 400 -137
l83 0 1 -47 c0 -27 4 -127 8 -223 20 -473 -53 -808 -212 -963 -32 -32 -63 -55
-67 -50 -5 4 -20 67 -34 138 -63 316 -106 383 -317 489 -147 74 -318 83 -472
26 -122 -46 -159 -152 -122 -346 40 -212 165 -463 291 -588 79 -78 435 -243
649 -301 218 -59 327 -54 480 20 188 91 317 246 410 490 39 104 91 315 110
445 28 202 18 564 -25 860 -15 104 -16 100 38 100 46 0 282 23 372 36 102 15
152 117 131 269 -21 148 -90 229 -276 323 -133 66 -161 69 -680 51z m570 -53
c33 -22 44 -52 56 -152 11 -101 0 -168 -34 -202 -23 -23 -40 -27 -184 -43 -87
-10 -198 -20 -248 -23 l-90 -4 0 -49 c1 -26 12 -136 25 -243 18 -149 23 -244
23 -405 0 -232 -13 -344 -62 -531 -106 -402 -268 -611 -546 -703 -87 -29 -113
-33 -200 -33 -218 1 -438 98 -545 240 -65 86 -151 255 -190 370 -49 148 -56
315 -15 378 55 84 344 121 396 52 34 -44 67 -144 99 -298 69 -343 191 -465
376 -375 191 93 303 339 336 737 9 117 9 201 0 403 -13 267 -28 354 -70 406
l-19 22 -179 -12 c-188 -13 -278 -6 -351 24 -52 22 -77 86 -71 184 9 143 54
199 181 221 136 24 955 62 1194 55 66 -1 99 -7 118 -19z m220 -114 c92 -69
125 -144 125 -278 0 -76 -20 -126 -55 -142 -31 -14 -162 -32 -349 -46 l-151
-12 1 -34 c1 -19 12 -116 23 -215 54 -451 35 -764 -64 -1082 -63 -199 -134
-330 -235 -430 -198 -197 -397 -230 -727 -119 l-98 33 79 6 c312 27 549 209
677 522 154 377 185 777 105 1345 -7 52 -13 96 -12 97 0 1 80 9 176 18 300 27
323 34 365 106 17 28 20 51 19 139 0 58 -5 122 -11 143 l-12 37 48 -25 c26
-14 69 -43 96 -63z m-1106 -431 c36 -85 33 -91 -51 -91 -99 1 -146 13 -262 68
l-100 47 165 11 c90 6 178 11 195 12 29 2 33 -2 53 -47z m-563 -846 c150 -88
189 -154 239 -399 18 -88 36 -169 40 -178 10 -25 -29 -41 -87 -36 -106 11
-170 121 -218 373 -21 114 -62 249 -81 270 -32 34 25 18 107 -30z"/>
</g>
</svg>
