<svg width="800" height="600" xmlns="http://www.w3.org/2000/svg">
 <title>myJ</title>

 <g>
  <title>Layer 1</title>
  <line id="svg_6" y2="117" x2="561" y1="114" x1="258" stroke="#000000" fill="none"/>
  <line id="svg_7" y2="119" x2="560" y1="142" x1="560" stroke="#000000" fill="none"/>
  <line stroke="#000000" id="svg_8" y2="140" x2="260" y1="112" x1="260" fill="none"/>
  <line transform="rotate(0.445508 288 141.5)" id="svg_9" y2="143" x2="317" y1="140" x1="259" stroke="#000000" fill="none"/>
  <polyline stroke-linecap="round" id="svg_10" points="298,223 297,223 " stroke="#000000" fill="none"/>
  <path d="m324,144c0,0 1,0 2,0c1,0 1.07611,0.61731 2,1c1.30655,0.5412 1,1 2,1c1,0 1,0 1,0c0,0 1,0 1,1c0,0 1,0 1,1c0,0 0,0 1,0c0,0 0.29291,-0.70711 1,0c0.70709,0.70711 0,1 0,1c0,0 1,1 1,1c1,0 1,0 1,0c0,0 0,1 0,1c1,0 0.29291,0.29289 1,1c0.70709,0.70711 0.29291,0.29289 1,1c0.70709,0.70711 1,0 1,0c0,0 0,0 0,1c0,0 1,0 1,1c0,0 0,0 0,0c1,0 1,1 1,2c0,0 0,0 0,0c0,1 1,1 1,1c0,1 0,1 0,2c0,0 0,1 0,1c1,0 1,1 1,2c0,1 0,3 0,4c0,1 0,1 0,2c0,1 0,1 0,1c0,0 0,1 0,1c0,1 -0.38269,2.07613 0,3c0.5412,1.30656 1,2 1,2c0,0 0,1 0,2c0,0 0,1 0,1c0,0 0,1 0,1c0,1 0,1 0,1l-1,0l0,0" id="svg_11" stroke="#000000" fill="none"/>
  <path d="m560,140c-1,0 -1,0 -2,0c0,0 0,0 -1,0c0,0 -1,0 -1,0c-1,1 -1,1 -2,1c0,0 -1,0 -2,0c0,0 -1,0 -1,1c0,0 -1,0 -2,0c0,0 -1,0 -2,0c-1,0 -2,0 -3,0c-1,0 -2,0 -3,0c-1,0 -1,0 -2,0c-1,0 -2,0 -3,0c-1,0 -3,0 -3,0c-1,0 -2,0 -3,0c0,0 -1,0 -1,0c-2,0 -3.69342,0.4588 -5,1c-0.92389,0.38269 -2,0 -2,0c-1,0 -2.69342,0.4588 -4,1c-0.92389,0.38269 -2,0 -3,0c0,0 0,0 -1,0c0,0 -1,0 -1,0c-1,0 -2,0 -3,0c0,0 -2,0 -2,0c-2,0 -3,0 -5,0c-1,0 -2,0 -4,0c-1,0 -2.07611,-0.38269 -3,0c-1.30655,0.5412 -1,1 -2,1c0,0 0,0 -1,0c-1,0 -1.07611,-0.38269 -2,0c-1.30655,0.5412 -1,1 -2,1c0,0 -1,0 -1,0c-1,1 -1,1 -2,2c0,0 -0.61731,0.07613 -1,1c-0.5412,1.30656 -1.61731,1.07613 -2,2c-0.5412,1.30656 -1,1 -2,2c0,0 0,1 -1,2c0,0 -1,0 -1,1c0,0 -1,1 -1,1c0,1 0,2 0,2c-1,0 -1,0 -1,1c0,0 0,1 0,1c0,1 0,1 0,2c0,0 0.38269,0.07613 0,1c-0.5412,1.30656 -1,1 -1,1c0,1 0,2 0,3c0,1 0.38269,2.07613 0,3c-0.5412,1.30656 -1,3 -1,3c0,1 0,2 0,2c0,1 -1,1 -1,1c0,1 0,1 0,1c0,1 0,1 0,2c0,1 0,1 0,2l0,0l0,1l0,0" id="svg_12" stroke="#000000" fill="none"/>
  <line stroke="#000000" id="svg_13" y2="413" x2="344" y1="185" x1="344" fill="none"/>
  <line stroke="#000000" id="svg_14" y2="439" x2="474" y1="162" x1="475" fill="none"/>
  <path id="svg_15" d="m314.99999,527c-85.08288,0 -133.00001,9.8011 -141.00001,-79c-8,-88.80111 53.91713,-241 105.00001,-98c51.08288,143 196.00001,5.1989 194.00001,77c-2,71.80111 -72.91713,100 -158.00001,100z" opacity="undefined" stroke="#000000" fill="none"/>
 </g>
</svg>